<svg
   xmlns:dc="http://purl.org/dc/elements/1.1/"
   xmlns:cc="http://creativecommons.org/ns#"
   xmlns:rdf="http://www.w3.org/1999/02/22-rdf-syntax-ns#"
   xmlns:svg="http://www.w3.org/2000/svg"
   xmlns="http://www.w3.org/2000/svg"
   id="svg41"
   version="1.1"
   viewBox="0 0 380 280">
  <metadata
     id="metadata47">
    <rdf:RDF>
      <cc:Work
         rdf:about="">
        <dc:format>image/svg+xml</dc:format>
        <dc:type
           rdf:resource="http://purl.org/dc/dcmitype/StillImage" />
      </cc:Work>
    </rdf:RDF>
  </metadata>
  <defs
     id="defs45" />
  <svg
     height="100%"
     width="100%"
     id="svg18"
     version="1.1"
     viewBox="0 0 380 280">
    <linearGradient
       y2="0"
       x2="1"
       y1="0"
       x1="0"
       id="bg_color_gradient">
      <stop
         id="stop2"
         style="stop-color:#FFFFFF;stop-opacity:1"
         offset="0%" />
      <stop
         id="stop4"
         style="stop-color:#FFFFFF;stop-opacity:1"
         offset="100%" />
    </linearGradient>
    <path
       id="rect7"
       d="M 0,0 H 380 V 280 H 0 Z"
       style="fill:url(#bg_color_gradient);fill-opacity:1" />
    <radialGradient
       r="0.5"
       cy="0.5"
       cx="0.5"
       fy="0.5"
       fx="0.5"
       id="icon_color_gradient">
      <stop
         id="stop9"
         stop-opacity="1"
         stop-color="#FFFA36"
         offset="0%" />
      <stop
         id="stop11"
         stop-opacity="1"
         stop-color="#FABF54"
         offset="33%" />
      <stop
         id="stop13"
         stop-opacity="1"
         stop-color="#E94D82"
         offset="66%" />
      <stop
         id="stop15"
         stop-opacity="1"
         stop-color="#5D5F93"
         offset="100%" />
    </radialGradient>
  </svg>
  <svg
     id="svg26"
     version="1.1"
     height="59.216022"
     width="64"
     y="102.39199"
     x="68.4375">
    <g
       style="fill:url(#icon_color_gradient)"
       id="g24">
      <svg
         height="100%"
         width="100%"
         id="svg22"
         version="1.1"
         viewBox="0 0 2796 2587">
        <path
           style="fill-rule:evenodd;stroke:none"
           id="path20"
           d="m 796.286,103.75 c 0.287,59.775 0.795,90.3 1.594,95.75 4.061,27.709 12.097,42.639 28.833,53.572 20.306,13.266 55.15,19.8 135.287,25.371 38.469,2.675 51.456,3.499 127.5,8.09 126.13,7.615 131.005,7.942 130.835,8.783 -0.091,0.448 -11.096,15.072 -24.455,32.499 -19.475,25.404 -161.731,211.097 -179.672,234.534 l -4.477,5.849 3.473,3.473 3.474,3.473 153.911,-154.624 c 84.651,-85.043 154.048,-155.011 154.215,-155.485 0.62,-1.753 -52.896,-44.834 -82.304,-66.257 -7.15,-5.208 -22,-15.556 -33,-22.995 C 1093.534,96.009 975.678,44.5 855.005,19.976 836.099,16.134 834.769,16 815.651,16 h -19.787 l 0.422,87.75 M 1943,18.122 c -67.029,13.521 -121.304,30.258 -181.743,56.044 -24.421,10.419 -68.707,32.061 -92.798,45.349 -56.617,31.228 -116.445,71.336 -169.866,113.877 -27.202,21.661 -36.546,29.923 -68.093,60.201 C 1291.071,427.416 1156.305,556.701 1035.006,673 955.556,749.175 845.077,855.15 789.495,908.5 733.914,961.85 657.939,1034.723 620.661,1070.44 l -67.778,64.94 159.303,159.306 159.303,159.306 18.506,-18.324 c 10.178,-10.078 40.105,-39.444 66.505,-65.257 26.4,-25.814 103.125,-100.929 170.5,-166.923 67.375,-65.993 155.575,-152.349 196,-191.901 40.425,-39.552 85.875,-84.133 101,-99.068 15.125,-14.935 82.175,-80.674 149,-146.086 201.425,-197.165 204.971,-200.668 204.289,-201.826 -0.358,-0.609 -23.393,-30.807 -51.187,-67.107 -120.604,-157.512 -142.785,-186.459 -148.848,-194.25 -4.231,-5.437 -5.965,-8.387 -5.087,-8.653 0.733,-0.222 25.408,-1.82 54.833,-3.552 172.733,-10.165 234.35,-14.387 263.5,-18.054 76.665,-9.645 96.054,-23.585 103.605,-74.491 0.817,-5.509 1.318,-35.17 1.609,-95.25 l 0.423,-87.25 -21.819,0.103 c -17.217,0.08 -23.821,0.506 -31.318,2.019 M 1720.476,695.309 C 1702.313,713.014 1650.569,763.275 1605.49,807 1473.822,934.712 1431,976.311 1431,976.505 c 0,0.101 54.995,54.591 122.212,121.089 67.217,66.498 175.734,173.954 241.15,238.791 l 118.938,117.884 10.137,-10.384 c 13.157,-13.477 257.457,-261.843 280.723,-285.395 l 17.791,-18.009 -35.24,-35.991 C 1970.017,883.179 1754.563,663.462 1754.09,663.309 c -0.324,-0.106 -15.451,14.294 -33.614,32 M 354,996.844 c -1.375,0.979 -8.8,6.219 -16.5,11.645 -35.901,25.297 -80.081,58.264 -126.5,94.396 -54.716,42.59 -192.443,150.316 -193.836,151.614 -1.099,1.024 0.287,4.136 7.85,17.622 28.302,50.465 66.357,107.965 101.84,153.879 15.809,20.456 38.575,47.416 48.646,57.608 4.95,5.01 60.064,58.335 122.476,118.5 62.411,60.166 129.236,124.639 148.5,143.273 l 35.024,33.882 26,12.754 c 30.263,14.847 66.853,29.725 91,37.004 9.35,2.818 26.9,7.091 39,9.494 27.236,5.411 32.801,6.693 48.5,11.168 53.883,15.36 100.262,44.038 152.281,94.16 55.449,53.429 112.759,120.445 221.623,259.157 102.117,130.116 168.001,210.29 232.965,283.494 32.25,36.34 68.196,74.274 77.381,81.659 l 3.75,3.015 V 2306.82 2042.473 L 1218.75,1887.451 C 1133.362,1802.19 1009.361,1678.446 943.192,1612.465 830.168,1499.764 471.661,1139.375 434.398,1101 c -19.884,-20.477 -34.482,-37.79 -47.42,-56.243 -8.754,-12.483 -21.95,-34.418 -27.077,-45.007 -1.265,-2.612 -2.547,-4.736 -2.85,-4.718 -0.303,0.017 -1.676,0.833 -3.051,1.812 m 2083.616,5.492 c -2.208,5.78 -12.936,24.372 -21.973,38.079 -13.414,20.345 -26.684,36.417 -49.611,60.088 -22.773,23.511 -107.302,109.882 -139.952,143.002 -16.269,16.503 -40.631,41.253 -54.138,55 -145.554,148.143 -297.811,302.558 -580.762,588.995 l -152.126,154 -0.027,255.946 -0.027,255.946 3.62,-3.446 c 1.991,-1.895 12.232,-12.671 22.759,-23.946 67.937,-72.769 152.949,-174.691 263.621,-316.06 194.89,-248.946 267.725,-320.171 362.42,-354.404 14.017,-5.067 40.568,-12.187 58.08,-15.574 44.508,-8.609 91.178,-26.009 155,-57.791 l 27,-13.445 16,-15.642 c 57.543,-56.255 152.745,-149.178 209.5,-204.487 36.575,-35.642 70.722,-69.595 75.882,-75.451 46.858,-53.17 102.772,-135.152 143.447,-210.32 l 4.693,-8.675 -18.261,-13.29 C 2717.265,1207.748 2645.32,1153.034 2569.5,1093.886 2525.826,1059.816 2442.146,998 2439.699,998 c -0.235,0 -1.173,1.951 -2.083,4.336" />
      </svg>
    </g>
  </svg>
  <g
     transform="translate(225,140)"
     id="container">
    <g
       id="text28"
       style="font-size:40px;font-family:REEJI-JunXian-BlackGB;fill:#070707;fill-opacity:1"
       aria-label="R">
      <path
         id="path50"
         style="font-size:40px;font-family:REEJI-JunXian-BlackGB;fill:#070707;fill-opacity:1"
         d="m -84.1625,-16.825 h 14.96 q 6.32,0.04 9.64,2.36 3.4,2.36 3.4,6.24 v 0.8 q 0,3.56 -3.2,6.04 -2.36,1.76 -6.44,2.28 l 9.64,15.76 h -6.68 l -9.48,-15.56 h -5.72 v 15.56 h -6.12 z m 14.72,15.12 q 2.12,-0.08 3.32,-0.36 1.2,-0.28 2,-1.16 1,-1.12 1.4,-1.88 0.4,-0.76 0.4,-1.96 v -1.56 q -0.04,-1.4 -0.52,-2.2 -0.44,-0.84 -1.6,-1.84 -0.96,-0.8 -2.24,-1.04 -1.28,-0.28 -3.36,-0.32 h -8 v 12.32 z" />
    </g>
    <g
       id="text30"
       style="font-size:40px;font-family:REEJI-JunXian-BlackGB;fill:#070707;fill-opacity:1"
       aria-label="S">
      <path
         id="path53"
         style="font-size:40px;font-family:REEJI-JunXian-BlackGB;fill:#070707;fill-opacity:1"
         d="m -50.1825,13.815 h 17.04 q 2.72,0 3.84,-0.56 1.12,-0.56 1.28,-1.48 0.2,-0.92 0.24,-3.36 v -1.68 q -0.04,-2.44 -0.24,-3.36 -0.16,-0.92 -1.28,-1.48 -1.12,-0.6 -3.84,-0.64 h -6.84 q -4.32,-0.04 -6.64,-0.96 -2.32,-0.96 -3.2,-2.76 -0.84,-1.84 -0.84,-4.92 v -0.76 q 0,-3.08 0.84,-4.88 0.88,-1.84 3.2,-2.8 2.32,-0.96 6.64,-1 h 17.84 l 0.04,2.88 h -17.08 q -2.72,0 -3.84,0.56 -1.12,0.52 -1.32,1.48 -0.16,0.92 -0.16,3.32 v 1.6 q 0,0.36 0,2.24 0.04,1.88 1.32,2.52 1.28,0.64 4,0.64 h 6.88 q 4.32,0 6.64,0.96 2.32,0.96 3.16,2.84 0.88,1.88 0.88,4.92 v 0.88 q 0,3.08 -0.88,4.92 -0.84,1.8 -3.16,2.72 -2.32,0.96 -6.64,1 h -17.88 z" />
    </g>
    <g
       id="text32"
       style="font-size:40px;font-family:REEJI-JunXian-BlackGB;fill:#070707;fill-opacity:1"
       aria-label="t">
      <path
         id="path56"
         style="font-size:40px;font-family:REEJI-JunXian-BlackGB;fill:#070707;fill-opacity:1"
         d="m 0.7275,16.655 q -4.12,0 -6.24,-0.92 -2.08,-0.92 -2.8,-2.76 -0.72,-1.84 -0.72,-4.96 v -10.28 h -6.88 v -2.8 h 6.88 v -7.28 h 6.16 v 7.28 h 6.84 v 2.8 h -6.84 v 10.68 q 0.04,2.24 0.24,3.28 0.24,1.04 1.16,1.64 0.92,0.56 3.04,0.56 h 2.44 v 2.76 z" />
    </g>
    <g
       id="text34"
       style="font-size:40px;font-family:REEJI-JunXian-BlackGB;fill:#070707;fill-opacity:1"
       aria-label="o">
      <path
         id="path59"
         style="font-size:40px;font-family:REEJI-JunXian-BlackGB;fill:#070707;fill-opacity:1"
         d="m 20.1425,16.295 q -4.32,-0.04 -6.64,-1 -2.32,-0.96 -3.2,-2.76 -0.84,-1.84 -0.84,-4.92 v -4.4 q 0,-3.08 0.84,-4.88 0.88,-1.84 3.2,-2.76 2.32,-0.96 6.64,-1 h 3.44 q 4.32,0.04 6.6,1 2.32,0.92 3.16,2.76 0.88,1.8 0.88,4.88 v 4.4 q 0,3.08 -0.88,4.92 -0.84,1.8 -3.16,2.76 -2.28,0.96 -6.6,1 z m 2.6,-2.8 q 2.72,-0.04 3.84,-0.6 1.12,-0.56 1.28,-1.48 0.2,-0.96 0.24,-3.36 v -5.24 q -0.04,-2.44 -0.24,-3.36 -0.16,-0.92 -1.28,-1.48 -1.12,-0.6 -3.84,-0.64 h -1.8 q -2.68,0.04 -3.8,0.64 -1.12,0.56 -1.32,1.48 -0.16,0.92 -0.2,3.36 v 5.24 q 0.04,2.44 0.2,3.36 0.2,0.92 1.32,1.48 1.12,0.56 3.8,0.6 z" />
    </g>
    <g
       id="text36"
       style="font-size:40px;font-family:REEJI-JunXian-BlackGB;fill:#070707;fill-opacity:1"
       aria-label="r">
      <path
         id="path62"
         style="font-size:40px;font-family:REEJI-JunXian-BlackGB;fill:#070707;fill-opacity:1"
         d="m 39.8375,-5.425 h 6.12 v 3.88 l 7.76,-3.88 v 4 l -7.76,3.88 v 13.84 h -6.12 z" />
    </g>
    <g
       id="text38"
       style="font-size:40px;font-family:REEJI-JunXian-BlackGB;fill:#070707;fill-opacity:1"
       aria-label="e">
      <path
         id="path65"
         style="font-size:40px;font-family:REEJI-JunXian-BlackGB;fill:#070707;fill-opacity:1"
         d="m 70.2675,16.655 q -4.32,-0.04 -6.64,-1 -2.32,-0.92 -3.2,-2.72 -0.84,-1.84 -0.84,-4.92 v -4.4 q 0,-3.08 0.84,-4.88 0.88,-1.84 3.2,-2.8 2.32,-0.96 6.64,-1 h 2.96 q 4.4,0.04 6.8,0.64 2.4,0.6 3.36,1.84 0.96,1.24 0.96,3.36 v 7.76 h -18.6 q 0.04,2.36 0.24,3.28 0.2,0.92 1.28,1.48 1.12,0.56 3.8,0.6 h 13.28 v 2.76 z m 7.96,-10.92 v -4.2 q -0.04,-2 -0.32,-2.68 -0.28,-0.68 -1.32,-0.84 -1.04,-0.2 -4.2,-0.28 h -1.32 q -2.72,0.04 -3.84,0.6 -1.08,0.56 -1.28,1.48 -0.16,0.92 -0.2,3.36 v 2.56 z" />
    </g>
  </g>
</svg>
